<svg xmlns="http://www.w3.org/2000/svg" viewBox="0 0 108 108" width="150" height="150">
    <!-- Background Gradient -->
    <defs>
        <linearGradient id="bg" x1="0%" y1="0%" x2="100%" y2="100%">
            <stop offset="0%" stop-color="#0F172A" />
            <stop offset="100%" stop-color="#1E1B4B" />
        </linearGradient>
    </defs>
    
    <!-- Outer Rounded Square -->
    <rect x="0" y="0" width="108" height="108" rx="28" fill="url(#bg)" />

    <!-- Group matching the Android Vector Paths -->
    <g>
        <path fill="#4F46E5" d="M 54 47 C 70 37, 85 47, 85 47 L 85 87 C 85 87, 70 77, 54 87 Z" />
        <path fill="#4F46E5" d="M 54 47 C 38 37, 23 47, 23 47 L 23 87 C 23 87, 38 77, 54 87 Z" />

        <path fill="#6366F1" d="M 54 41 C 70 31, 85 41, 85 41 L 85 81 C 85 81, 70 71, 54 81 Z" />
        <path fill="#6366F1" d="M 54 41 C 38 31, 23 41, 23 41 L 23 81 C 23 81, 38 71, 54 81 Z" />

        <path fill="#22D3EE" d="M 54 35 C 70 25, 85 35, 85 35 L 85 75 C 85 75, 70 65, 54 75 Z" />
        <path fill="#22D3EE" d="M 54 35 C 38 25, 23 35, 23 35 L 23 75 C 23 75, 38 65, 54 75 Z" />

        <path fill="#06B6D4" d="M 54 10 L 57.5 21.5 L 69 25 L 57.5 28.5 L 54 40 L 50.5 28.5 L 39 25 L 50.5 21.5 Z" />

        <path fill="#6366F1" d="M 75 15 L 76.5 19.5 L 81 21 L 76.5 22.5 L 75 27 L 73.5 22.5 L 69 21 L 73.5 19.5 Z" />
        <path fill="#22D3EE" d="M 33 15 L 34.5 19.5 L 39 21 L 34.5 22.5 L 33 27 L 31.5 22.5 L 27 21 L 31.5 19.5 Z" />
    </g>
</svg>
