<svg xmlns="http://www.w3.org/2000/svg" viewBox="0 0 108 108" fill="none">
    <g style="transform-origin: center; transform: scale(0.75);">
        <path fill="#6366F1" d="M54 24 L84 39 L54 54 L24 39 Z" />
        <path fill="#4F46E5" d="M24 49 L54 64 L84 49 L84 59 L54 74 L24 59 Z" />
        <path fill="#06B6D4" d="M34 69 L54 79 L74 69 L74 74 L54 84 L34 74 Z" />
        <path fill="rgba(34,211,238,0.8)" d="M 62,54 a8,8 0 1,0 -16,0 a8,8 0 1,0 16,0" />
        <path fill="rgba(103,232,249,0.9)" d="M54 46 A8 8 0 0 0 54 62 A8 8 0 0 0 54 46" />
    </g>
</svg>
